<?xml version="1.0" encoding="utf-8" standalone="yes"?><svg xmlns="http://www.w3.org/2000/svg" xmlns:xlink="http://www.w3.org/1999/xlink" version="1.1" width="816" height="1056"><!--Generated by Aspose.Words for .NET 22.8.0--><defs><clipPath id="clip001"><path d="M0,0 L23.997,0 L23.997,23.997 L0,23.997 Z" clip-rule="evenodd" /></clipPath><clipPath id="clip002"><path d="M-0,-0 L32.00006,-0 L32.00006,32.00006 L-0,32.00006 Z" clip-rule="evenodd" /></clipPath></defs><g><rect x="0" y="0" width="816" height="1056" style="fill: #ffffff; stroke: #000000; stroke-width: 1.333333" /><g transform="translate(96,96)"><g><g /></g></g><g transform="translate(96,96)"><g><g clip-path="url(#clip001)"><g transform="matrix(0.9998732,0,0,0.9998732,0,0)"><g><g transform="matrix(0.7499999,0,0,0.7499999,0,0)" clip-path="url(#clip002)"><path d="M32.00006,16.00003 C32.00006,24.77738 24.77738,32.00006 16.00003,32.00006 L16.00003,32.00006 C7.222672,32.00006 0,24.77738 0,16.00003 L0,16.00003 C-0,7.222672 7.222672,0 16.00003,0 L16.00003,0 C24.77738,-0 32.00006,7.222672 32.00006,16.00003 " fill="#0078d4" fill-rule="nonzero" /><path d="M16.00003,7.000013 L16.00003,7.000013 L16.02621,7.00024 L16.05238,7.000926 L16.07853,7.002068 L16.10466,7.003666 L16.13076,7.00572 L16.15682,7.00823 L16.18283,7.011194 L16.20879,7.01461 L16.23468,7.01848 L16.2605,7.022801 L16.28624,7.027571 L16.3119,7.032791 L16.33746,7.038457 L16.36291,7.044569 L16.38826,7.051124 L16.41349,7.05812 L16.43859,7.065556 L16.46356,7.073428 L16.48838,7.081735 L16.51306,7.090473 L16.53758,7.099642 L16.56194,7.109236 L16.58613,7.119256 L16.61013,7.129695 L16.63396,7.140552 L16.65759,7.151823 L16.68102,7.163503 L16.70424,7.175592 L16.72724,7.188083 L16.75003,7.200975 L16.77259,7.214262 L16.79491,7.227942 L16.81699,7.242007 L16.83882,7.256457 L16.86039,7.271286 L16.88171,7.286487 L16.90275,7.30206 L16.92352,7.317997 L16.94401,7.334295 L16.96421,7.350946 L16.98412,7.367949 L17.00373,7.385295 L17.02303,7.402982 L17.04202,7.421003 L17.06069,7.439353 L17.07904,7.458025 L17.09706,7.477015 L17.11475,7.496317 L17.1321,7.515925 L17.1491,7.535832 L17.16575,7.556033 L17.18205,7.576521 L17.19798,7.597292 L17.21356,7.618337 L17.22876,7.639649 L17.24359,7.661225 L17.25804,7.683055 L17.2721,7.705135 L17.28578,7.727458 L17.29907,7.750014 L17.31196,7.772799 L17.32445,7.795807 L17.33654,7.819028 L17.34822,7.842457 L17.35949,7.866086 L17.37035,7.889909 L17.38079,7.913918 L17.39081,7.938104 L17.4004,7.962462 L17.40957,7.986984 L17.41831,8.011662 L17.42662,8.036489 L17.43449,8.061458 L17.44192,8.086558 L17.44892,8.111787 L17.45547,8.137133 L17.46159,8.162589 L17.46725,8.188148 L17.47247,8.213801 L17.47724,8.239543 L17.48157,8.265364 L17.48543,8.291255 L17.48885,8.31721 L17.49182,8.343222 L17.49432,8.369282 L17.49638,8.39538 L17.49798,8.421511 L17.49912,8.447665 L17.4998,8.473836 L17.50003,8.500016 L17.50003,15.87703 L21.52604,19.90404 L21.52604,19.90404 L21.54387,19.92321 L21.56136,19.94269 L21.57851,19.96247 L21.59531,19.98255 L21.61175,20.00292 L21.62784,20.02357 L21.64357,20.0445 L21.65893,20.0657 L21.67391,20.08717 L21.68852,20.10889 L21.70275,20.13087 L21.71659,20.15309 L21.73004,20.17555 L21.7431,20.19824 L21.75576,20.22115 L21.76802,20.24428 L21.77987,20.26763 L21.79132,20.29117 L21.80235,20.31491 L21.81296,20.33885 L21.82316,20.36296 L21.83293,20.38725 L21.84228,20.4117 L21.8512,20.43631 L21.85969,20.46108 L21.86774,20.48599 L21.87536,20.51103 L21.88254,20.53621 L21.88928,20.56151 L21.89558,20.58692 L21.90143,20.61243 L21.90684,20.63805 L21.9118,20.66376 L21.91631,20.68954 L21.92037,20.71541 L21.92398,20.74134 L21.92713,20.76733 L21.92983,20.79337 L21.93208,20.81945 L21.93387,20.84557 L21.9352,20.87171 L21.93608,20.89788 L21.9365,20.92405 L21.93646,20.95023 L21.93597,20.97641 L21.93502,21.00257 L21.93361,21.02871 L21.93175,21.05483 L21.92943,21.0809 L21.92666,21.10694 L21.92343,21.13292 L21.91975,21.15883 L21.91562,21.18469 L21.91104,21.21046 L21.90601,21.23615 L21.90053,21.26175 L21.8946,21.28725 L21.88824,21.31265 L21.88143,21.33793 L21.87417,21.36308 L21.86649,21.38811 L21.85836,21.41299 L21.8498,21.43773 L21.84081,21.46232 L21.8314,21.48675 L21.82156,21.51101 L21.81129,21.53509 L21.80061,21.559 L21.78951,21.58271 L21.77801,21.60622 L21.76609,21.62953 L21.75376,21.65263 L21.74104,21.67551 L21.72792,21.69816 L21.7144,21.72059 L21.7005,21.74277 L21.68621,21.7647 L21.67155,21.78639 L21.6565,21.80781 L21.64108,21.82897 L21.6253,21.84985 L21.60915,21.87046 L21.59264,21.89079 L21.57579,21.91082 L21.55858,21.93055 L21.54104,21.94998 L21.52316,21.9691 L21.50495,21.98791 L21.48641,22.00639 L21.46755,22.02455 L21.44838,22.04238 L21.4289,22.05987 L21.40912,22.07702 L21.38904,22.09382 L21.36867,22.11027 L21.34802,22.12636 L21.32709,22.14208 L21.30589,22.15744 L21.28442,22.17243 L21.2627,22.18704 L21.24072,22.20126 L21.2185,22.21511 L21.19604,22.22856 L21.17335,22.24162 L21.15044,22.25428 L21.1273,22.26653 L21.10396,22.27839 L21.08042,22.28983 L21.05667,22.30086 L21.03274,22.31148 L21.00863,22.32167 L20.98434,22.33145 L20.95989,22.3408 L20.93527,22.34971 L20.91051,22.3582 L20.8856,22.36625 L20.86055,22.37388 L20.83538,22.38106 L20.81008,22.38779 L20.78467,22.39409 L20.75915,22.39995 L20.73354,22.40536 L20.70783,22.41032 L20.68204,22.41483 L20.65618,22.41889 L20.63025,22.42249 L20.60426,22.42564 L20.57822,22.42835 L20.55214,22.43059 L20.52602,22.43238 L20.49988,22.43371 L20.47371,22.43459 L20.44753,22.43501 L20.42135,22.43497 L20.39518,22.43448 L20.36902,22.43353 L20.34287,22.43212 L20.31676,22.43027 L20.29068,22.42795 L20.26465,22.42517 L20.23867,22.42195 L20.21275,22.41826 L20.1869,22.41414 L20.16113,22.40955 L20.13543,22.40452 L20.10983,22.39904 L20.08433,22.39312 L20.05894,22.38675 L20.03366,22.37994 L20.00851,22.37269 L19.98348,22.365 L19.95859,22.35687 L19.93385,22.34832 L19.90927,22.33932 L19.88484,22.32991 L19.86058,22.32007 L19.83649,22.30981 L19.81259,22.29912 L19.78888,22.28803 L19.76537,22.27652 L19.74206,22.2646 L19.71896,22.25228 L19.69608,22.23956 L19.67342,22.22643 L19.651,22.21292 L19.62882,22.19901 L19.60689,22.18472 L19.5852,22.17006 L19.56378,22.15501 L19.54262,22.13959 L19.52173,22.12381 L19.50113,22.10766 L19.4808,22.09116 L19.46077,22.0743 L19.44104,22.0571 L19.42161,22.03955 L19.40603,22.02504 L14.97803,17.59803 L14.97803,17.59803 L14.95905,17.5801 L14.94039,17.56184 L14.92205,17.54325 L14.90404,17.52435 L14.88636,17.50514 L14.86902,17.48562 L14.85202,17.4658 L14.83537,17.44569 L14.81907,17.42529 L14.80314,17.4046 L14.78756,17.38365 L14.77236,17.36242 L14.75752,17.34094 L14.74307,17.3192 L14.72899,17.2972 L14.7153,17.27497 L14.70201,17.2525 L14.6891,17.2298 L14.67659,17.20688 L14.66449,17.18375 L14.65279,17.16041 L14.6415,17.13686 L14.63063,17.11312 L14.62017,17.0892 L14.61012,17.0651 L14.6005,17.04083 L14.59131,17.01639 L14.58254,16.9918 L14.57421,16.96705 L14.5663,16.94217 L14.55884,16.91715 L14.55181,16.892 L14.54522,16.86674 L14.53907,16.84136 L14.53336,16.81588 L14.52811,16.79031 L14.52329,16.76465 L14.51893,16.7389 L14.51502,16.71309 L14.51156,16.68721 L14.50855,16.66127 L14.50599,16.63529 L14.50389,16.60926 L14.50224,16.58321 L14.50105,16.55712 L14.50031,16.53102 L14.50003,16.50492 L14.50003,16.50003 L14.50003,8.500016 L14.50003,8.500016 L14.50026,8.473836 L14.50094,8.447665 L14.50208,8.421511 L14.50368,8.39538 L14.50573,8.369282 L14.50824,8.343222 L14.51121,8.31721 L14.51462,8.291255 L14.51849,8.265364 L14.52282,8.239543 L14.52759,8.213801 L14.53281,8.188148 L14.53847,8.162589 L14.54458,8.137133 L14.55114,8.111787 L14.55814,8.086558 L14.56557,8.061458 L14.57344,8.036489 L14.58175,8.011662 L14.59049,7.986984 L14.59966,7.962462 L14.60925,7.938104 L14.61927,7.913918 L14.62971,7.889909 L14.64056,7.866086 L14.65183,7.842457 L14.66352,7.819028 L14.67561,7.795807 L14.6881,7.772799 L14.70099,7.750014 L14.71428,7.727458 L14.72795,7.705135 L14.74202,7.683055 L14.75647,7.661225 L14.7713,7.639649 L14.7865,7.618337 L14.80207,7.597292 L14.81801,7.576521 L14.83431,7.556033 L14.85096,7.535832 L14.86796,7.515925 L14.88531,7.496317 L14.903,7.477015 L14.92102,7.458025 L14.93937,7.439353 L14.95804,7.421003 L14.97703,7.402982 L14.99633,7.385295 L15.01594,7.367949 L15.03585,7.350946 L15.05605,7.334295 L15.07653,7.317997 L15.0973,7.30206 L15.11835,7.286487 L15.13966,7.271286 L15.16124,7.256457 L15.18307,7.242007 L15.20515,7.227942 L15.22747,7.214262 L15.25003,7.200975 L15.27281,7.188083 L15.29582,7.175592 L15.31904,7.163503 L15.34247,7.151823 L15.3661,7.140552 L15.38992,7.129695 L15.41393,7.119256 L15.43812,7.109236 L15.46248,7.099642 L15.487,7.090473 L15.51168,7.081735 L15.5365,7.073428 L15.56147,7.065556 L15.58657,7.05812 L15.6118,7.051124 L15.63715,7.044569 L15.6626,7.038457 L15.68816,7.032791 L15.71382,7.027571 L15.73956,7.022801 L15.76538,7.01848 L15.79127,7.01461 L15.81723,7.011194 L15.84324,7.00823 L15.86929,7.00572 L15.89539,7.003666 L15.92152,7.002068 L15.94768,7.000926 L15.97385,7.00024 L16.00003,7.000013 Z" fill="#ffffff" fill-rule="nonzero" /></g></g></g></g></g></g></g></svg>